<svg width="96" height="96" viewBox="0 0 96 96" fill="none" xmlns="http://www.w3.org/2000/svg">
<g clip-path="url(#clip0_0_82)">
<rect width="96" height="96" fill="#EC3B3B"/>
<path d="M63.3853 47.03C66.8053 48.41 69.2053 50.03 70.5853 51.89C72.0253 53.75 72.7453 56.24 72.7453 59.36C72.7453 65.42 70.2253 69.98 65.1853 73.04C60.1453 76.1 52.1653 77.63 41.2453 77.63C37.8253 77.63 31.2853 77.42 21.6253 77L24.5953 59.9L28.7353 18.77L53.7553 18.68C59.9953 18.68 64.9153 19.85 68.5153 22.19C72.1753 24.47 74.0053 27.83 74.0053 32.27C74.0053 35.33 73.1053 38.18 71.3053 40.82C69.5053 43.46 66.8653 45.53 63.3853 47.03ZM49.5253 42.8C53.4853 41.66 55.4653 39.26 55.4653 35.6C55.4653 34.28 55.1953 33.26 54.6553 32.54C54.1153 31.82 53.1853 31.31 51.8653 31.01C50.5453 30.71 48.6253 30.56 46.1053 30.56H44.5753L42.7753 42.53L49.5253 42.8ZM45.5653 65.84C48.3253 65.84 50.5153 65.24 52.1353 64.04C53.7553 62.78 54.5653 61.1 54.5653 59C54.5653 57.68 54.2053 56.66 53.4853 55.94C52.7653 55.22 51.5953 54.56 49.9753 53.96L41.0653 54.14L40.5253 58.1L39.8953 65.48C42.8953 65.72 44.7853 65.84 45.5653 65.84Z" fill="white"/>
</g>
<defs>
<clipPath id="clip0_0_82">
<rect width="96" height="96" fill="white"/>
</clipPath>
</defs>
</svg>
